/* XPM */
static char * top_left_inactive_xpm[] = {
"12 35 3 1",
"       c None",
".      c #C0C0FF s inactive_color_2",
"@      c #C0C0FF s active_text_color",
"@@@@@@@@@@@@",
"@...........",
"@...........",
"@...........",
"@...........",
"@...........",
"@...........",
"@...........",
"@...........",
"@...........",
"@...........",
"@...........",
"@...........",
"@...........",
"@...........",
"@...........",
"@...........",
"@...........",
"@...........",
"@...........",
"@...........",
"@...........",
"@...........",
"@...........",
"@...........",
"@...........",
"@...........",
"@...........",
"@...........",
"@...........",
"@...........",
"@...........",
"@...........",
"@...........",
"@..........."};
