<svg
   version="1.1"
   x="0px"
   y="0px"
   viewBox="0 0 26 26"
   width="26"
   height="26"
   xmlns="http://www.w3.org/2000/svg"
   xmlns:svg="http://www.w3.org/2000/svg">

<g
   id="g6"
   transform="matrix(2,0,0,2,-2.9995389,1.0011721)">
 <path
   style="fill:#5865f2;stroke-width:0.999987"
   d="m 6.5663106,4 c -0.7141918,0.1291084 -1.397371,0.3567025 -2.0351017,0.6640625 -0.00552,0.00252 -0.00858,0.00631 -0.011719,0.011719 -1.2963543,2.0328173 -1.6526885,4.0143876 -1.478476,5.9726565 8.077e-4,0.0096 0.00657,0.01957 0.013672,0.02539 0.8552974,0.659275 1.6829102,1.05893 2.4960268,1.324219 0.013015,0.0042 0.026874,-4.79e-4 0.035155,-0.01172 0.1923428,-0.275696 0.3646982,-0.64742 0.5117049,-0.953125 0.00867,-0.0179 1.604e-4,-0.03784 -0.017577,-0.04492 -0.2719583,-0.108282 -0.530175,-0.2407 -0.779276,-0.390625 -0.019702,-0.01208 -0.022008,-0.04248 -0.00391,-0.05664 0.052421,-0.04123 0.104239,-0.08364 0.1542928,-0.126954 0.00906,-0.0079 0.022556,-0.0089 0.033202,-0.0039 1.6364858,0.784233 3.4080792,0.784233 5.0252566,0 0.01064,-0.0054 0.0218,-0.004 0.03125,0.0039 0.05007,0.04331 0.10343,0.08573 0.156246,0.126954 0.01812,0.01416 0.01775,0.04456 -0.002,0.05664 -0.249101,0.152837 -0.508875,0.282755 -0.7812289,0.390625 -0.017729,0.0071 -0.026253,0.02702 -0.017577,0.04492 0.1501619,0.305276 0.3229109,0.677415 0.5117049,0.953125 0.0079,0.01166 0.02214,0.01589 0.03516,0.01172 0.817062,-0.265289 1.644635,-0.664944 2.499933,-1.324219 0.0075,-0.0058 0.01288,-0.01581 0.01367,-0.02539 0.208497,-2.2639737 -0.349247,-4.2292828 -1.478475,-5.9726565 -0.0028,-0.00582 -0.0081,-0.00922 -0.01367,-0.011719 C 10.827282,4.3571169 10.1441,4.1295224 9.4295151,4 9.4165005,3.99748 9.4030158,4.00316 9.396313,4.015625 9.3084164,4.1797138 9.2125464,4.3141659 9.1443666,4.4824219 c -0.7685833,-0.120774 -1.5342246,-0.120774 -2.287048,0 C 6.7891393,4.3104253 6.6878045,4.1797138 6.5995129,4.015625 6.5928113,4.003549 6.5812786,3.997916 6.5682637,4 Z m -0.566391,3 c 0.5612329,0 1.0087472,0.4527368 0.9999732,1 0,0.5512044 -0.4431271,1 -0.9999732,1 C 5.4518162,9 4.9999464,8.5512044 4.9999464,8 c 0,-0.5512044 0.4431113,-1 0.9999732,-1 z m 3.9998927,0 c 0.5612327,0 1.0087467,0.4527368 0.9999737,1 0,0.5512044 -0.443128,1 -0.9999737,1 C 9.4517089,9 8.9998391,8.5512044 8.9998391,8 c 0,-0.5512044 0.4431114,-1 0.9999732,-1 z"
   id="path4" />

</g>
<g
   id="g12"
   transform="matrix(-0.86088924,0,0,0.68966884,26.582042,0.47908812)">
	<g
   style="fill:#d57200"
   transform="matrix(0.98988299,0,0,0.99987675,0.67609388,0.00140019)"
   id="g7">
		<path
   d="m 30.51,18.256 c 0,-0.77 -0.586,-1.39 -1.318,-1.429 l 0.002,-0.039 c 0.016,-0.231 0.033,-0.469 0.033,-0.707 0,-4.501 -1.516,-8.364 -4.373,-11.184 -2.717,-2.674 -5.508,-4.143 -9.596,-4.143 -4.084,0 -6.875,1.469 -9.592,4.144 -2.859,2.816 -4.375,6.682 -4.375,11.184 0,0.173 0.012,0.348 0.018,0.522 l 0.006,0.224 C 0.584,16.871 0,17.486 0,18.256 v 9.586 c 0,0.799 0.619,1.449 1.387,1.449 H 1.86 c 0.271,0.296 0.645,0.466 1.039,0.466 h 1.414 c 0.805,0 1.463,-0.68 1.463,-1.521 v -10.37 c 0,-0.842 -0.658,-1.522 -1.463,-1.522 H 3.361 C 3.449,9.179 7.732,2.83 15.549,2.83 c 6.998,0 11.494,6.325 11.602,13.513 H 26.2 c -0.805,0 -1.461,0.681 -1.461,1.522 v 10.37 c 0,0.841 0.656,1.521 1.461,1.521 h 1.416 c 0.393,0 0.762,-0.166 1.029,-0.466 h 0.48 c 0.766,0 1.385,-0.65 1.385,-1.449 z"
   id="path8" />
	</g>
	<g
   id="Capa_1_244_">
	</g>
</g>

</svg>
